<svg width="16" height="16" viewBox="0 0 16 16" fill="none" xmlns="http://www.w3.org/2000/svg">
<path d="M1.3335 2.66663L1.3335 13.3333C1.3335 14.0697 1.93045 14.6666 2.66683 14.6666H5.3335C6.06988 14.6666 6.66683 14.0697 6.66683 13.3333L6.66683 2.66663C6.66683 1.93025 6.06988 1.33329 5.3335 1.33329H2.66683C1.93045 1.33329 1.3335 1.93025 1.3335 2.66663Z" stroke="#2DC232" stroke-linecap="round" stroke-linejoin="round"/>
<path d="M9.3335 2.66663V13.3333C9.3335 14.0697 9.93045 14.6666 10.6668 14.6666H13.3335C14.0699 14.6666 14.6668 14.0697 14.6668 13.3333V2.66663C14.6668 1.93025 14.0699 1.33329 13.3335 1.33329H10.6668C9.93045 1.33329 9.3335 1.93025 9.3335 2.66663Z" stroke="#2DC232" stroke-linecap="round" stroke-linejoin="round"/>
<path d="M4 12V11.9933" stroke="#2DC232" stroke-linecap="round" stroke-linejoin="round"/>
<path d="M12 12V11.9933" stroke="#2DC232" stroke-linecap="round" stroke-linejoin="round"/>
</svg>
