<svg width="40" height="40" viewBox="0 0 40 40" fill="none" xmlns="http://www.w3.org/2000/svg">
<path d="M38.3334 4.99991C36.7373 6.12571 34.9702 6.98676 33.1 7.54991C32.0963 6.39577 30.7622 5.57773 29.2784 5.20646C27.7946 4.83518 26.2325 4.92857 24.8035 5.474C23.3745 6.01943 22.1474 6.99058 21.2883 8.25611C20.4292 9.52163 19.9795 11.0205 20 12.5499V14.2166C17.0711 14.2925 14.1688 13.6429 11.5517 12.3257C8.93459 11.0084 6.68388 9.06431 5.00002 6.66658C5.00002 6.66658 -1.66665 21.6666 13.3334 28.3332C9.9009 30.6632 5.81195 31.8315 1.66669 31.6666C16.6667 39.9999 35 31.6666 35 12.4999C34.9985 12.0357 34.9538 11.5726 34.8667 11.1166C36.5677 9.43907 37.7681 7.3211 38.3334 4.99991V4.99991Z" stroke="white" stroke-width="2" stroke-linecap="round" stroke-linejoin="round"/>
</svg>
