<svg width="40" height="40" viewBox="0 0 40 40" fill="none" xmlns="http://www.w3.org/2000/svg">
<path d="M37.5667 10.7001C37.3687 9.9091 36.9655 9.18437 36.3978 8.59909C35.83 8.01382 35.1179 7.58872 34.3333 7.36675C31.4667 6.66675 20 6.66675 20 6.66675C20 6.66675 8.53333 6.66675 5.66666 7.43341C4.88208 7.65539 4.16996 8.08048 3.60224 8.66576C3.03452 9.25103 2.63131 9.97576 2.43333 10.7667C1.90869 13.676 1.65206 16.6273 1.66666 19.5834C1.64796 22.5618 1.90461 25.5356 2.43333 28.4667C2.6516 29.2332 3.06384 29.9303 3.63024 30.4909C4.19663 31.0514 4.89803 31.4564 5.66666 31.6667C8.53333 32.4334 20 32.4334 20 32.4334C20 32.4334 31.4667 32.4334 34.3333 31.6667C35.1179 31.4448 35.83 31.0197 36.3978 30.4344C36.9655 29.8491 37.3687 29.1244 37.5667 28.3334C38.0873 25.4461 38.3439 22.5173 38.3333 19.5834C38.352 16.605 38.0954 13.6312 37.5667 10.7001V10.7001Z" stroke="white" stroke-width="2" stroke-linecap="round" stroke-linejoin="round"/>
<path d="M16.25 25.0333L25.8333 19.5833L16.25 14.1333V25.0333Z" stroke="white" stroke-width="2" stroke-linecap="round" stroke-linejoin="round"/>
</svg>
