<svg width="16" height="22" viewBox="0 0 16 22" fill="none" xmlns="http://www.w3.org/2000/svg">
<path d="M7.58796 0.152832C9.6929 0.152832 11.4923 0.891258 12.9861 2.36811C14.4799 3.84496 15.2269 5.63586 15.2269 7.7408C15.2269 8.79326 14.9637 10.007 14.4375 11.382C13.9113 12.757 13.2747 14.0301 12.5278 15.2014C11.7809 16.3727 11.034 17.4761 10.287 18.5116C9.54012 19.5471 8.91204 20.3704 8.40278 20.9815L7.58796 21.8473C7.38426 21.6436 7.11265 21.338 6.77315 20.9306C6.43364 20.5232 5.83102 19.7339 4.96528 18.5626C4.09954 17.3913 3.32716 16.2539 2.64815 15.1505C1.96914 14.0471 1.35802 12.7994 0.814815 11.4075C0.271605 10.0155 0 8.79326 0 7.7408C0 5.63586 0.738426 3.84496 2.21528 2.36811C3.69213 0.891258 5.48302 0.152832 7.58796 0.152832ZM7.58796 10.4399C8.33488 10.4399 8.97994 10.1768 9.52315 9.65052C10.0664 9.12428 10.338 8.48771 10.338 7.7408C10.338 6.99388 10.0664 6.35731 9.52315 5.83107C8.97994 5.30484 8.33488 5.04172 7.58796 5.04172C6.84105 5.04172 6.20448 5.30484 5.67824 5.83107C5.15201 6.35731 4.88889 6.99388 4.88889 7.7408C4.88889 8.48771 5.15201 9.12428 5.67824 9.65052C6.20448 10.1768 6.84105 10.4399 7.58796 10.4399Z" fill="#1F2543"/>
</svg>
