<svg width="141" height="37" viewBox="0 0 141 37" fill="none" xmlns="http://www.w3.org/2000/svg">
<path d="M49.214 14.372H44.484V12.326H56.386V14.372H51.634V27H49.214V14.372ZM72.761 15.956L69.087 27H66.887L64.511 19.146L62.157 27H59.979L56.305 15.956H58.769L61.233 24.272L63.565 15.956H65.479L67.877 24.316L70.385 15.956H72.761ZM79.1471 27.33C77.3871 27.33 76.0597 26.8313 75.1651 25.834C74.2851 24.8367 73.8451 23.3847 73.8451 21.478C73.8451 17.6207 75.6051 15.692 79.1251 15.692C80.8997 15.692 82.2344 16.1907 83.1291 17.188C84.0237 18.1707 84.4711 19.6007 84.4711 21.478C84.4711 23.3553 84.0091 24.8 83.0851 25.812C82.1611 26.824 80.8484 27.33 79.1471 27.33ZM79.1251 25.372C81.1491 25.372 82.1611 24.074 82.1611 21.478C82.1611 20.1873 81.9191 19.2267 81.4351 18.596C80.9511 17.9507 80.1811 17.628 79.1251 17.628C78.0544 17.628 77.2844 17.958 76.8151 18.618C76.3604 19.2633 76.1331 20.2167 76.1331 21.478C76.1331 22.7393 76.3677 23.7073 76.8371 24.382C77.3211 25.042 78.0837 25.372 79.1251 25.372ZM90.3258 27.33C89.5925 27.33 88.9545 27.2567 88.4118 27.11C87.8838 26.9633 87.3118 26.7433 86.6958 26.45V24.272C87.3558 24.6827 87.9571 24.9907 88.4998 25.196C89.0425 25.3867 89.6511 25.482 90.3258 25.482C90.9565 25.482 91.4478 25.3573 91.7998 25.108C92.1665 24.844 92.3498 24.5067 92.3498 24.096C92.3498 23.7 92.2031 23.4067 91.9098 23.216C91.6165 23.0253 91.1618 22.82 90.5458 22.6L90.0398 22.424C89.0131 22.1747 88.1918 21.8153 87.5758 21.346C86.9745 20.8767 86.6738 20.1433 86.6738 19.146C86.6738 18.3687 86.8791 17.7233 87.2898 17.21C87.7005 16.6967 88.2138 16.3227 88.8298 16.088C89.4605 15.8533 90.1205 15.736 90.8098 15.736C91.5138 15.7507 92.1078 15.8387 92.5918 16C93.0758 16.1467 93.6038 16.3667 94.1758 16.66V18.64C93.4131 18.244 92.8338 17.9727 92.4378 17.826C92.0565 17.6793 91.5945 17.606 91.0518 17.606C90.4505 17.606 89.9665 17.716 89.5998 17.936C89.2331 18.156 89.0498 18.464 89.0498 18.86C89.0498 19.3293 89.2331 19.674 89.5998 19.894C89.9665 20.0993 90.5385 20.312 91.3158 20.532C92.0491 20.7373 92.6285 20.9353 93.0538 21.126C93.4938 21.3167 93.8751 21.632 94.1978 22.072C94.5351 22.4973 94.7038 23.084 94.7038 23.832C94.6891 25.0053 94.2565 25.8853 93.4058 26.472C92.5698 27.044 91.5431 27.33 90.3258 27.33ZM101.343 27.286C100.331 27.286 99.5393 27.0147 98.9673 26.472C98.3953 25.9293 98.1093 25.1593 98.1093 24.162V17.87H96.3273V15.956H98.1093V12.876H100.485V15.956H103.169V17.87H100.485V23.7C100.485 24.2427 100.581 24.6387 100.771 24.888C100.962 25.1227 101.299 25.24 101.783 25.24C102.018 25.24 102.26 25.2107 102.509 25.152C102.773 25.0787 102.993 24.9907 103.169 24.888V26.934C102.656 27.1687 102.047 27.286 101.343 27.286ZM110.623 15.714C111.825 15.714 112.845 16.0073 113.681 16.594C114.531 17.166 114.949 18.0973 114.935 19.388V24.668C114.935 25.6653 114.495 26.362 113.615 26.758C112.735 27.1393 111.481 27.33 109.853 27.33C108.547 27.33 107.469 27.0587 106.619 26.516C105.768 25.9733 105.343 25.064 105.343 23.788C105.343 22.5853 105.687 21.6833 106.377 21.082C107.081 20.4807 108.071 20.18 109.347 20.18C110.667 20.18 111.767 20.444 112.647 20.972V19.916C112.647 18.42 111.745 17.672 109.941 17.672C109.295 17.672 108.65 17.7747 108.005 17.98C107.359 18.1707 106.824 18.442 106.399 18.794V16.638C106.809 16.374 107.403 16.154 108.181 15.978C108.973 15.802 109.787 15.714 110.623 15.714ZM110.117 25.526C111.041 25.526 111.693 25.46 112.075 25.328C112.456 25.196 112.647 24.932 112.647 24.536V22.402C111.899 22.0793 111.077 21.918 110.183 21.918C109.347 21.918 108.709 22.0647 108.269 22.358C107.843 22.6513 107.631 23.0913 107.631 23.678C107.631 24.294 107.873 24.756 108.357 25.064C108.855 25.372 109.442 25.526 110.117 25.526ZM127.72 15.956L123.166 27.682C122.227 30.0727 120.958 31.268 119.36 31.268C118.788 31.268 118.304 31.18 117.908 31.004V29.024C118.274 29.1707 118.641 29.244 119.008 29.244C119.58 29.244 120.027 29.0533 120.35 28.672C120.687 28.2907 120.973 27.7113 121.208 26.934L116.698 15.956H119.316L122.33 24.206L125.322 15.956H127.72ZM136.226 24.426H138.844V27H136.226V24.426Z" fill="white"/>
<g clip-path="url(#clip0)">
<path d="M18 0.484375C8.05887 0.484375 0 8.54324 0 18.4844C0 28.4255 8.05887 36.4844 18 36.4844C27.9411 36.4844 36 28.4255 36 18.4844C36 8.54324 27.9411 0.484375 18 0.484375ZM18 8.77905L26.7891 15.6103V28.1897H20.7422V20.596H15.2578V28.1897H9.21093V15.6103L18 8.77905Z" fill="white"/>
</g>
<defs>
<clipPath id="clip0">
<rect width="36" height="36" fill="white" transform="translate(0 0.484375)"/>
</clipPath>
</defs>
</svg>
