<svg width="24" height="24" viewBox="0 0 24 24" fill="none" xmlns="http://www.w3.org/2000/svg">
<path d="M13.05 9.79005L9.99999 7.50005V16.5L13.05 14.21L16 12L13.05 9.79005ZM13.05 9.79005L9.99999 7.50005V16.5L13.05 14.21L16 12L13.05 9.79005ZM13.05 9.79005L9.99999 7.50005V16.5L13.05 14.21L16 12L13.05 9.79005ZM11 4.07005V2.05005C8.98999 2.25005 7.15999 3.05005 5.67999 4.26005L7.09999 5.69005C8.22994 4.80794 9.5776 4.24814 11 4.07005ZM5.68999 7.10005L4.25999 5.68005C3.0148 7.19664 2.24589 9.04758 2.04999 11H4.06999C4.24999 9.54005 4.82999 8.21005 5.68999 7.10005ZM4.06999 13H2.04999C2.24999 15.01 3.04999 16.84 4.25999 18.32L5.68999 16.89C4.80635 15.7648 4.24626 14.4199 4.06999 13ZM5.67999 19.74C7.19756 20.9836 9.04799 21.7523 11 21.9501V19.93C9.5776 19.752 8.22994 19.1922 7.09999 18.31L5.67999 19.74ZM22 12C22 17.16 18.08 21.42 13.05 21.9501V19.93C16.97 19.41 20 16.05 20 12C20 7.95005 16.97 4.59005 13.05 4.07005V2.05005C18.08 2.58005 22 6.84005 22 12Z" fill="white"/>
</svg>
