<svg width="100" height="100" viewBox="0 0 100 100" fill="none" xmlns="http://www.w3.org/2000/svg">
<path d="M87.5 50C87.5 29.2969 70.7031 12.5 50 12.5C29.2969 12.5 12.5 29.2969 12.5 50C12.5 70.7031 29.2969 87.5 50 87.5C70.7031 87.5 87.5 70.7031 87.5 50Z" stroke="white" stroke-width="4" stroke-miterlimit="10"/>
<path d="M42.25 65.3203L64.6035 51.8164C64.9151 51.6265 65.1726 51.3597 65.3513 51.0416C65.53 50.7235 65.6239 50.3648 65.6239 50C65.6239 49.6351 65.53 49.2764 65.3513 48.9583C65.1726 48.6402 64.9151 48.3734 64.6035 48.1836L42.25 34.6796C41.9296 34.4877 41.5639 34.3844 41.1904 34.3804C40.8169 34.3764 40.4491 34.4719 40.1247 34.657C39.8003 34.842 39.5309 35.1101 39.3443 35.4336C39.1576 35.7571 39.0604 36.1245 39.0625 36.498V63.5019C39.0604 63.8754 39.1576 64.2428 39.3443 64.5663C39.5309 64.8898 39.8003 65.1579 40.1247 65.343C40.4491 65.528 40.8169 65.6235 41.1904 65.6195C41.5639 65.6155 41.9296 65.5122 42.25 65.3203Z" fill="white"/>
</svg>
