<svg width="39" height="38" viewBox="0 0 39 38" fill="none" xmlns="http://www.w3.org/2000/svg">
<path d="M37.6287 14.0994C34.8444 4.48556 26.469 0.651733 17.0664 1.33973C16.1304 1.40817 16.1244 2.84126 17.0664 2.77192C25.4112 2.16188 30.6801 4.55536 34.9523 11.7218C40.2063 20.5347 34.6022 30.2061 26.1837 34.4039C18.0158 38.4761 8.18387 34.3472 3.8482 26.9818C-0.658366 19.3255 4.64568 7.03722 11.1075 1.92348C11.842 1.34245 10.7991 0.335382 10.0729 0.910978C3.42445 6.17202 -1.83653 18.3873 1.99944 26.4738C6.15265 35.2269 16.1689 39.3182 25.4566 36.2471C34.7856 33.1625 40.286 23.2804 37.6287 14.0994Z" fill="white"/>
<path d="M30.5418 11.1576C32.0485 9.65344 29.6558 7.37086 28.1453 8.87875C25.3303 11.6889 22.4726 14.4588 19.5655 17.179C16.7219 14.3768 13.9345 11.5219 11.2534 8.57302C9.8209 6.99827 7.43457 9.28823 8.85686 10.8519C11.5264 13.7884 14.3011 16.6298 17.1321 19.4206C14.3283 21.9807 11.4789 24.4957 8.53584 26.9152C6.87885 28.2774 9.28748 30.5471 10.9323 29.1941C13.8652 26.7829 16.7054 24.2776 19.4991 21.7257C22.2321 24.3574 25.0068 26.9489 27.8243 29.5008C29.4056 30.9335 31.8065 28.6583 30.2208 27.2219C27.4169 24.6816 24.6548 22.1025 21.9339 19.4842C24.8517 16.7552 27.7181 13.976 30.5418 11.1576Z" fill="white"/>
</svg>
