<svg width="30" height="21" viewBox="0 0 30 21" fill="none" xmlns="http://www.w3.org/2000/svg">
<path d="M14.6834 8.31009C4.35128 8.14785 0.805042 8.07009 0.602482 10.4087C0.399602 12.7472 3.18584 11.9677 15.1394 11.9079C27.093 11.8477 29.3727 12.6874 29.4233 10.5287C29.4735 8.37025 26.1308 8.48993 14.6834 8.31009ZM14.3769 3.67361C26.5529 3.20289 29.4002 4.81953 29.4002 2.04929C29.4002 -0.720948 26.8514 0.534093 16.4882 0.272973C1.28024 -0.110388 0.600242 -0.110387 0.581362 2.31329C0.567282 4.09281 2.20152 4.14465 14.3769 3.67361ZM15.4889 16.4464C2.52024 16.6423 0.568242 16.0666 0.578162 18.1373C0.588402 20.2077 0.588402 20.2823 10.4194 20.0522C20.2508 19.8218 29.7231 21.1619 29.4674 18.8615C29.2118 16.5613 29.0281 16.2416 15.4889 16.4464Z" fill="url(#paint0_linear)"/>
<defs>
<linearGradient id="paint0_linear" x1="3.36364" y1="7.45454" x2="31.3636" y2="8.18182" gradientUnits="userSpaceOnUse">
<stop stop-color="#FF0099"/>
<stop offset="1" stop-color="#290332"/>
</linearGradient>
</defs>
</svg>
