<svg width="21" height="21" viewBox="0 0 21 21" fill="none" xmlns="http://www.w3.org/2000/svg">
<path fill-rule="evenodd" clip-rule="evenodd" d="M17.0585 10.4688C16.7043 11.1146 16.0168 11.5417 15.2356 11.5417H7.47518L6.32935 13.625H18.8293V15.7083H6.32935C4.74601 15.7083 3.74601 14.0104 4.50643 12.6146L5.91268 10.0729L2.16268 2.16668H0.0793457V0.0833435H3.4856L4.46476 2.16668H19.8814C20.6731 2.16668 21.1731 3.02084 20.7877 3.70834L17.0585 10.4688ZM18.1106 4.25001H5.45431L7.92306 9.45834H15.2356L18.1106 4.25001ZM6.32937 16.75C5.18354 16.75 4.25646 17.6875 4.25646 18.8333C4.25646 19.9792 5.18354 20.9167 6.32937 20.9167C7.47521 20.9167 8.41271 19.9792 8.41271 18.8333C8.41271 17.6875 7.47521 16.75 6.32937 16.75ZM14.6731 18.8333C14.6731 17.6875 15.6002 16.75 16.746 16.75C17.8918 16.75 18.8293 17.6875 18.8293 18.8333C18.8293 19.9792 17.8918 20.9167 16.746 20.9167C15.6002 20.9167 14.6731 19.9792 14.6731 18.8333Z" fill="white"/>
</svg>
