<svg width="27" height="27" viewBox="0 0 27 27" fill="none" xmlns="http://www.w3.org/2000/svg">
<path fill-rule="evenodd" clip-rule="evenodd" d="M21.6328 13.4613C21.1936 14.2621 20.3411 14.7917 19.3724 14.7917H9.74944L8.32861 17.375H23.8286V19.9583H8.32861C6.36528 19.9583 5.12528 17.8529 6.0682 16.1221L7.81195 12.9704L3.16195 3.16668H0.578613V0.583344H4.80236L6.01653 3.16668H25.1332C26.1149 3.16668 26.7349 4.22584 26.2569 5.07834L21.6328 13.4613ZM22.9373 5.75H7.24358L10.3048 12.2083H19.3723L22.9373 5.75ZM8.32862 21.25C6.90779 21.25 5.75821 22.4125 5.75821 23.8333C5.75821 25.2542 6.90779 26.4167 8.32862 26.4167C9.74946 26.4167 10.912 25.2542 10.912 23.8333C10.912 22.4125 9.74946 21.25 8.32862 21.25ZM18.6749 23.8333C18.6749 22.4125 19.8244 21.25 21.2453 21.25C22.6661 21.25 23.8286 22.4125 23.8286 23.8333C23.8286 25.2542 22.6661 26.4167 21.2453 26.4167C19.8244 26.4167 18.6749 25.2542 18.6749 23.8333Z" fill="url(#paint0_linear)"/>
<defs>
<linearGradient id="paint0_linear" x1="3.06995" y1="10.0312" x2="28.1216" y2="10.4851" gradientUnits="userSpaceOnUse">
<stop stop-color="#FF0099"/>
<stop offset="1" stop-color="#290332"/>
</linearGradient>
</defs>
</svg>
