<svg width="22" height="22" viewBox="0 0 22 22" fill="none" xmlns="http://www.w3.org/2000/svg">
<path d="M11 0C4.93456 0 0 4.93456 0 11C0 17.0654 4.93456 22 11 22C17.0654 22 22 17.0654 22 11C22 4.93456 17.0654 0 11 0ZM18.2729 5.07269C19.5815 6.6715 20.3739 8.70787 20.3946 10.9255C20.0848 10.86 16.9785 10.23 13.8521 10.6231C13.597 10.0003 13.3562 9.45246 13.0264 8.77733C16.5003 7.359 18.0748 5.34063 18.2729 5.07269V5.07269ZM17.2283 3.98617C17.0594 4.22688 15.645 6.12789 12.304 7.38016C10.7644 4.55138 9.05792 2.22754 8.79823 1.8798C11.7778 1.16156 14.9177 1.93613 17.2283 3.98617V3.98617ZM7.00545 2.51137C7.25317 2.85108 8.93213 5.17781 10.4889 7.94524C6.09396 9.11235 2.22298 9.09554 1.80276 9.08999C2.41202 6.17442 4.37685 3.75122 7.00545 2.51137ZM1.60431 11.0143C1.60431 10.9183 1.60622 10.8226 1.6091 10.7272C2.02019 10.7356 6.5733 10.7943 11.2654 9.3901C11.5344 9.9165 11.7913 10.4508 12.0272 10.9846C8.62963 11.9416 5.54276 14.6894 4.01975 17.2966C2.51909 15.6309 1.60431 13.4275 1.60431 11.0143ZM5.23285 18.4266C6.21429 16.4203 8.87784 13.8305 12.6658 12.5382C13.9849 15.9661 14.5304 18.839 14.6701 19.6633C11.649 20.9502 8.01625 20.5971 5.23285 18.4266V18.4266ZM16.2497 18.8031C16.1534 18.2316 15.6533 15.4811 14.4244 12.1041C17.3687 11.6328 19.9555 12.4043 20.2769 12.5057C19.8581 15.12 18.3575 17.3778 16.2497 18.8031Z" fill="black"/>
</svg>
