<svg width="28" height="17" viewBox="0 0 28 17" fill="none" xmlns="http://www.w3.org/2000/svg">
<path d="M11.2778 7.61728C12.8236 6.90169 13.6306 5.81889 13.6306 4.13348C13.6306 0.809748 11.0736 7.18359e-08 8.12292 7.18359e-08H0V16.6846H8.35139C11.4819 16.6846 14.4229 15.2299 14.4229 11.8402C14.4229 9.74522 13.3972 8.19634 11.2778 7.61728V7.61728ZM3.78681 2.84824H7.34028C8.70625 2.84824 9.93611 3.22016 9.93611 4.75492C9.93611 6.17197 8.97847 6.74162 7.62708 6.74162H3.78681V2.84824V2.84824ZM7.83611 13.8505H3.78681V9.25561H7.91389C9.58125 9.25561 10.6361 9.92883 10.6361 11.6378C10.6361 13.3232 9.37708 13.8505 7.83611 13.8505V13.8505ZM25.2632 2.51869H18.2778V0.875658H25.2632V2.51869V2.51869ZM28 10.8186C28 7.24536 25.8417 4.2653 21.9285 4.2653C18.1271 4.2653 15.5458 7.03351 15.5458 10.6585C15.5458 14.4201 17.991 17 21.9285 17C24.9083 17 26.8382 15.7006 27.7667 12.9371H24.7431C24.4174 13.9682 23.0757 14.5143 22.0354 14.5143C20.0278 14.5143 18.9729 13.375 18.9729 11.44H27.9708C27.9854 11.2423 28 11.0305 28 10.8186ZM18.9778 9.34976C19.0896 7.76322 20.1785 6.76987 21.8215 6.76987C23.5424 6.76987 24.4076 7.7491 24.5535 9.34976H18.9778Z" fill="black"/>
</svg>
